# xmcd
#
# Track frame offsets:
# 150
# 5190
# 16415
# 21018
# 25896
# 36638
# 54771
# 59938
# 69482
# 72177
# 74641
# 76693
# 85126
# 88707
# 91729
# 93839
# 99070
# 101706
# 105097
# 110530
# 115209
# 123476
# 145758
# 164733
# 176039
# 186370
# 209212
# 218858
# 221290
# 228501
# 244151
# 248350
# 270211
# 284817
# 305559
#
# Disc length: 4175 seconds
#
#
# Revision: 1
# Processed by: cddbd v1.5.2PL0 Copyright (c) Steve Scherf et al.
# Submitted via: MfcCDDB 1.28 
#
DISCID=f4104d23
DTITLE=Unknown Artist f4104d23 - Unknown Album f4104d23
DYEAR=2000
DGENRE=Unknown Genre f4104d23
TTITLE0=Track01
TTITLE1=Track02
TTITLE2=Track03
TTITLE3=Track04
TTITLE4=Track05
TTITLE5=Track06
TTITLE6=Track07
TTITLE7=Track08
TTITLE8=Track09
TTITLE9=Track10
TTITLE10=Track11
TTITLE11=Track12
TTITLE12=Track13
TTITLE13=Track14
TTITLE14=Track15
TTITLE15=Track16
TTITLE16=Track17
TTITLE17=Track18
TTITLE18=Track19
TTITLE19=Track20
TTITLE20=Track21
TTITLE21=Track22
TTITLE22=Track23
TTITLE23=Track24
TTITLE24=Track25
TTITLE25=Track26
TTITLE26=Track27
TTITLE27=Track28
TTITLE28=Track29
TTITLE29=Track30
TTITLE30=Track31
TTITLE31=Track32
TTITLE32=Track33
TTITLE33=Track34
TTITLE34=Track35
EXTD=
EXTT0=
EXTT1=
EXTT2=
EXTT3=
EXTT4=
EXTT5=
EXTT6=
EXTT7=
EXTT8=
EXTT9=
EXTT10=
EXTT11=
EXTT12=
EXTT13=
EXTT14=
EXTT15=
EXTT16=
EXTT17=
EXTT18=
EXTT19=
EXTT20=
EXTT21=
EXTT22=
EXTT23=
EXTT24=
EXTT25=
EXTT26=
EXTT27=
EXTT28=
EXTT29=
EXTT30=
EXTT31=
EXTT32=
EXTT33=
EXTT34=
PLAYORDER=
